<?xml version="1.0" encoding="utf-8"?>
<!-- Generator: Adobe Illustrator 23.0.6, SVG Export Plug-In . SVG Version: 6.00 Build 0)  -->
<svg version="1.1" id="Layer_1" xmlns="http://www.w3.org/2000/svg" xmlns:xlink="http://www.w3.org/1999/xlink" x="0px" y="0px"
     width="320px" height="77.7px" viewBox="0 0 320 77.7" style="enable-background:new 0 0 320 77.7;" xml:space="preserve">
<style type="text/css">
	.st0{fill:#FFFFFF;}
</style>
   	<g>
		<path class="st0" d="M 141.3 28.35 L 141.3 53.7 L 129.6 53.7 L 129.6 30.675 A 10.113 10.113 0 0 0 129.305 28.113 Q 128.446 24.842 125.088 24.221 A 9.423 9.423 0 0 0 123.375 24.075 A 7.762 7.762 0 0 0 120.611 24.552 A 6.976 6.976 0 0 0 118.125 26.175 Q 116.025 28.275 116.025 32.1 L 116.025 53.7 L 104.325 53.7 L 104.325 15 L 115.725 15 L 115.725 20.475 A 15.551 15.551 0 0 1 119.992 16.289 Q 123.18 14.237 127.319 14.109 A 17.955 17.955 0 0 1 127.875 14.1 A 16.459 16.459 0 0 1 132.133 14.622 A 11.88 11.88 0 0 1 137.663 17.813 A 12.07 12.07 0 0 1 140.628 23.059 Q 141.171 24.966 141.275 27.248 A 24.216 24.216 0 0 1 141.3 28.35 Z M 256.125 28.35 L 256.125 53.7 L 244.425 53.7 L 244.425 30.675 A 10.113 10.113 0 0 0 244.13 28.113 Q 243.271 24.842 239.913 24.221 A 9.423 9.423 0 0 0 238.2 24.075 A 7.762 7.762 0 0 0 235.436 24.552 A 6.976 6.976 0 0 0 232.95 26.175 Q 230.85 28.275 230.85 32.1 L 230.85 53.7 L 219.15 53.7 L 219.15 15 L 230.55 15 L 230.55 20.475 A 15.551 15.551 0 0 1 234.817 16.289 Q 238.005 14.237 242.144 14.109 A 17.955 17.955 0 0 1 242.7 14.1 A 16.459 16.459 0 0 1 246.958 14.622 A 11.88 11.88 0 0 1 252.488 17.813 A 12.07 12.07 0 0 1 255.453 23.059 Q 255.996 24.966 256.1 27.248 A 24.216 24.216 0 0 1 256.125 28.35 Z M 289.5 19.65 L 289.5 0.3 L 301.2 0.3 L 301.2 53.7 L 289.8 53.7 L 289.8 48.675 A 12.551 12.551 0 0 1 280.717 54.425 A 17.822 17.822 0 0 1 278.175 54.6 A 17.846 17.846 0 0 1 272.61 53.773 A 14.339 14.339 0 0 1 265.875 49.125 Q 261.682 44.107 261.332 35.876 A 35.921 35.921 0 0 1 261.3 34.35 A 30.622 30.622 0 0 1 261.865 28.284 Q 262.908 23.125 265.875 19.575 A 14.7 14.7 0 0 1 276.508 14.166 A 20.771 20.771 0 0 1 278.175 14.1 Q 285.525 14.1 289.5 19.65 Z M 213.675 35.475 L 213.675 37.8 L 185.025 37.8 A 13.235 13.235 0 0 0 185.679 40.415 Q 186.461 42.53 187.95 43.875 A 8.049 8.049 0 0 0 192.309 45.867 A 11.004 11.004 0 0 0 193.875 45.975 A 11.564 11.564 0 0 0 196.796 45.631 A 7.195 7.195 0 0 0 201.675 41.625 L 212.775 41.625 Q 211.2 47.625 206.1 51.113 A 19.819 19.819 0 0 1 197.723 54.324 A 25.986 25.986 0 0 1 193.875 54.6 A 23.707 23.707 0 0 1 187.251 53.719 A 18.191 18.191 0 0 1 179.325 49.05 A 18.627 18.627 0 0 1 174.101 38.571 A 26.323 26.323 0 0 1 173.775 34.35 A 25.13 25.13 0 0 1 174.541 27.974 A 17.973 17.973 0 0 1 179.25 19.65 A 17.988 17.988 0 0 1 189.417 14.447 A 25.674 25.674 0 0 1 193.725 14.1 A 22.769 22.769 0 0 1 200.461 15.051 A 18.05 18.05 0 0 1 208.275 19.875 A 19.793 19.793 0 0 1 213.037 29.233 A 28.938 28.938 0 0 1 213.675 35.475 Z M 25.275 0.3 L 25.275 9 L 22.125 9 A 7.632 7.632 0 0 0 20.37 9.184 Q 17.475 9.87 17.475 13.125 L 17.475 15 L 25.125 15 L 25.125 23.55 L 17.475 23.55 L 17.475 53.7 L 5.775 53.7 L 5.775 23.55 L 0 23.55 L 0 15 L 5.775 15 L 5.775 12.75 A 15.857 15.857 0 0 1 6.255 8.739 A 11.3 11.3 0 0 1 9.263 3.45 A 10.932 10.932 0 0 1 13.54 0.89 Q 15.269 0.308 17.384 0.106 A 24.729 24.729 0 0 1 19.725 0 A 51.675 51.675 0 0 1 23.476 0.142 A 61.252 61.252 0 0 1 25.275 0.3 Z M 162.975 15 L 170.4 15 L 170.4 23.55 L 162.975 23.55 L 162.975 41.625 Q 162.975 43.575 163.95 44.288 A 2.775 2.775 0 0 0 164.683 44.656 Q 165.442 44.918 166.622 44.981 A 14.742 14.742 0 0 0 167.4 45 L 170.4 45 L 170.4 53.7 A 25.173 25.173 0 0 1 168.814 53.871 Q 167.166 54 165 54 A 32.37 32.37 0 0 1 161.324 53.807 Q 156.843 53.293 154.5 51.413 A 7.885 7.885 0 0 1 152.032 47.857 Q 151.547 46.52 151.373 44.862 A 18.795 18.795 0 0 1 151.275 42.9 L 151.275 23.55 L 145.5 23.55 L 145.5 15 L 151.275 15 L 151.275 3.525 L 162.975 3.525 L 162.975 15 Z M 55.2 14.55 L 55.2 25.2 L 52.2 25.2 Q 44.041 25.2 42.361 31.82 A 15.804 15.804 0 0 0 41.925 35.7 L 41.925 53.7 L 30.225 53.7 L 30.225 15 L 41.625 15 L 41.625 22.2 Q 44.325 14.4 52.65 14.4 A 3.27 3.27 0 0 1 52.755 14.402 Q 53.201 14.418 54.953 14.534 A 472.94 472.94 0 0 1 55.2 14.55 Z M 93.675 49.05 Q 88.125 54.6 78.9 54.6 A 24.918 24.918 0 0 1 72.498 53.82 A 18.219 18.219 0 0 1 64.125 49.05 A 18.627 18.627 0 0 1 58.901 38.571 A 26.323 26.323 0 0 1 58.575 34.35 A 24.918 24.918 0 0 1 59.355 27.948 A 18.219 18.219 0 0 1 64.125 19.575 A 18.254 18.254 0 0 1 73.715 14.583 A 26.538 26.538 0 0 1 78.9 14.1 A 25.548 25.548 0 0 1 85.214 14.838 A 17.995 17.995 0 0 1 93.675 19.575 A 18.254 18.254 0 0 1 98.667 29.165 A 26.538 26.538 0 0 1 99.15 34.35 A 25.13 25.13 0 0 1 98.384 40.726 A 17.973 17.973 0 0 1 93.675 49.05 Z M 78.9 45.225 A 9.436 9.436 0 0 0 81.516 44.882 A 6.901 6.901 0 0 0 85.125 42.45 Q 87.3 39.675 87.3 34.35 Q 87.3 29.025 85.125 26.25 A 7.068 7.068 0 0 0 80.353 23.573 A 10.427 10.427 0 0 0 78.9 23.475 A 9.769 9.769 0 0 0 76.294 23.803 A 6.907 6.907 0 0 0 72.6 26.25 Q 70.425 29.025 70.425 34.35 Q 70.425 39.675 72.6 42.45 A 7.055 7.055 0 0 0 77.189 45.092 A 10.564 10.564 0 0 0 78.9 45.225 Z M 281.4 45.225 A 8.939 8.939 0 0 0 285.187 44.48 Q 289.725 42.379 289.725 34.35 A 20.831 20.831 0 0 0 289.382 30.383 Q 288.139 24.006 282.389 23.516 A 11.642 11.642 0 0 0 281.4 23.475 Q 277.5 23.475 275.325 26.363 Q 273.15 29.25 273.15 34.65 A 19.884 19.884 0 0 0 273.49 38.51 Q 274.702 44.603 280.227 45.167 A 11.545 11.545 0 0 0 281.4 45.225 Z M 320.325 40.8 L 320.325 53.7 L 307.125 53.7 L 307.125 40.8 L 320.325 40.8 Z M 185.1 30.375 L 202.2 30.375 A 11.597 11.597 0 0 0 201.46 27.756 A 8.364 8.364 0 0 0 199.35 24.75 A 7.773 7.773 0 0 0 195.308 22.86 A 10.744 10.744 0 0 0 193.575 22.725 A 9.953 9.953 0 0 0 190.124 23.281 Q 186.031 24.787 185.1 30.375 Z"/>
	</g>
</svg>